name C:/MyDriveSym/Projects/mobilecap/Data\Session20210819_0002\mocap\ForceDataProcessed\walking2_forces.mot
datacolumns 19
datarows 17
range 0.32950000 0.33750000
endheader 
time	R_ground_force_vx	R_ground_force_vy	R_ground_force_vz	R_ground_force_px	R_ground_force_py	R_ground_force_pz	R_ground_torque_x	R_ground_torque_y	R_ground_torque_z	L_ground_force_vx	L_ground_force_vy	L_ground_force_vz	L_ground_force_px	L_ground_force_py	L_ground_force_pz	L_ground_torque_x	L_ground_torque_y	L_ground_torque_z	
          0.32950000	        -16.51746600	        461.55044100	        -23.93317600	          0.20704400	          0.00600000	         -0.18633900	          0.00000000	         -1.27584900	          0.00000000	          0.00000000	          0.00000000	          0.00000000	          0.68541900	          0.00000000	         -0.22386100	          0.00000000	          0.00000000	          0.00000000	
          0.33000000	        -16.35891400	        461.74492300	        -23.94233500	          0.20718600	          0.00600000	         -0.18629100	          0.00000000	         -1.28519200	          0.00000000	          0.00000000	          0.00000000	          0.00000000	          0.68541900	          0.00000000	         -0.22386100	          0.00000000	          0.00000000	          0.00000000	
          0.33050000	        -16.20013100	        461.94617300	        -23.95184900	          0.20732700	          0.00600000	         -0.18624400	          0.00000000	         -1.29457700	          0.00000000	          0.00000000	          0.00000000	          0.00000000	          0.68541900	          0.00000000	         -0.22386100	          0.00000000	          0.00000000	          0.00000000	
          0.33100000	        -16.04110200	        462.15417300	        -23.96172000	          0.20746800	          0.00600000	         -0.18619800	          0.00000000	         -1.30400300	          0.00000000	          0.00000000	          0.00000000	          0.00000000	          0.68541900	          0.00000000	         -0.22386100	          0.00000000	          0.00000000	          0.00000000	
          0.33150000	        -15.88181500	        462.36890400	        -23.97194600	          0.20760800	          0.00600000	         -0.18615200	          0.00000000	         -1.31347000	          0.00000000	          0.00000000	          0.00000000	          0.00000000	          0.68541900	          0.00000000	         -0.22386100	          0.00000000	          0.00000000	          0.00000000	
          0.33200000	        -15.72225500	        462.59034800	        -23.98252700	          0.20774800	          0.00600000	         -0.18610600	          0.00000000	         -1.32297900	          0.00000000	          0.00000000	          0.00000000	          0.00000000	          0.68541900	          0.00000000	         -0.22386100	          0.00000000	          0.00000000	          0.00000000	
          0.33250000	        -15.56240700	        462.81848700	        -23.99346400	          0.20788800	          0.00600000	         -0.18606100	          0.00000000	         -1.33252900	          0.00000000	          0.00000000	          0.00000000	          0.00000000	          0.68541900	          0.00000000	         -0.22386100	          0.00000000	          0.00000000	          0.00000000	
          0.33300000	        -15.40226000	        463.05330000	        -24.00475500	          0.20802700	          0.00600000	         -0.18601700	          0.00000000	         -1.34211900	          0.00000000	          0.00000000	          0.00000000	          0.00000000	          0.68541900	          0.00000000	         -0.22386100	          0.00000000	          0.00000000	          0.00000000	
          0.33350000	        -15.24179800	        463.29477100	        -24.01640000	          0.20816600	          0.00600000	         -0.18597300	          0.00000000	         -1.35175100	          0.00000000	          0.00000000	          0.00000000	          0.00000000	          0.68541900	          0.00000000	         -0.22386100	          0.00000000	          0.00000000	          0.00000000	
          0.33400000	        -15.08100900	        463.54287800	        -24.02839900	          0.20830400	          0.00600000	         -0.18593000	          0.00000000	         -1.36142300	          0.00000000	          0.00000000	          0.00000000	          0.00000000	          0.68541900	          0.00000000	         -0.22386100	          0.00000000	          0.00000000	          0.00000000	
          0.33450000	        -14.91987900	        463.79760400	        -24.04075100	          0.20844200	          0.00600000	         -0.18588700	          0.00000000	         -1.37113600	          0.00000000	          0.00000000	          0.00000000	          0.00000000	          0.68541900	          0.00000000	         -0.22386100	          0.00000000	          0.00000000	          0.00000000	
          0.33500000	        -14.75839400	        464.05892900	        -24.05345600	          0.20857900	          0.00600000	         -0.18584400	          0.00000000	         -1.38089000	          0.00000000	          0.00000000	          0.00000000	          0.00000000	          0.68541900	          0.00000000	         -0.22386100	          0.00000000	          0.00000000	          0.00000000	
          0.33550000	        -14.59654300	        464.32683200	        -24.06651400	          0.20871600	          0.00600000	         -0.18580200	          0.00000000	         -1.39068400	          0.00000000	          0.00000000	          0.00000000	          0.00000000	          0.68541900	          0.00000000	         -0.22386100	          0.00000000	          0.00000000	          0.00000000	
          0.33600000	        -14.43431000	        464.60129600	        -24.07992500	          0.20885200	          0.00600000	         -0.18576100	          0.00000000	         -1.40051800	          0.00000000	          0.00000000	          0.00000000	          0.00000000	          0.68541900	          0.00000000	         -0.22386100	          0.00000000	          0.00000000	          0.00000000	
          0.33650000	        -14.27168500	        464.88229800	        -24.09368600	          0.20898800	          0.00600000	         -0.18572000	          0.00000000	         -1.41039300	          0.00000000	          0.00000000	          0.00000000	          0.00000000	          0.68541900	          0.00000000	         -0.22386100	          0.00000000	          0.00000000	          0.00000000	
          0.33700000	        -14.10865300	        465.16982000	        -24.10779900	          0.20912400	          0.00600000	         -0.18568000	          0.00000000	         -1.42030700	          0.00000000	          0.00000000	          0.00000000	          0.00000000	          0.68541900	          0.00000000	         -0.22386100	          0.00000000	          0.00000000	          0.00000000	
          0.33750000	        -13.94520200	        465.46384100	        -24.12226300	          0.20925900	          0.00600000	         -0.18564000	          0.00000000	         -1.43026100	          0.00000000	          0.00000000	          0.00000000	          0.00000000	          0.68541900	          0.00000000	         -0.22386100	          0.00000000	          0.00000000	          0.00000000	
